<svg xmlns="http://www.w3.org/2000/svg" xmlns:xlink="http://www.w3.org/1999/xlink" width="512" zoomAndPan="magnify" viewBox="0 0 384 383.999986" height="512" preserveAspectRatio="xMidYMid meet" version="1.0"><defs><clipPath id="e7fe997b37"><path d="M 30 30 L 120 30 L 120 354 L 30 354 Z M 30 30 " clip-rule="nonzero"/></clipPath><clipPath id="046fa6e0d6"><path d="M 39 30 L 111 30 C 113.386719 30 115.675781 30.949219 117.363281 32.636719 C 119.050781 34.324219 120 36.613281 120 39 L 120 345 C 120 347.386719 119.050781 349.675781 117.363281 351.363281 C 115.675781 353.050781 113.386719 354 111 354 L 39 354 C 36.613281 354 34.324219 353.050781 32.636719 351.363281 C 30.949219 349.675781 30 347.386719 30 345 L 30 39 C 30 36.613281 30.949219 34.324219 32.636719 32.636719 C 34.324219 30.949219 36.613281 30 39 30 Z M 39 30 " clip-rule="nonzero"/></clipPath><clipPath id="aeabacfb23"><path d="M 0 0 L 90 0 L 90 324 L 0 324 Z M 0 0 " clip-rule="nonzero"/></clipPath><clipPath id="6d409f7019"><path d="M 9 0 L 81 0 C 83.386719 0 85.675781 0.949219 87.363281 2.636719 C 89.050781 4.324219 90 6.613281 90 9 L 90 315 C 90 317.386719 89.050781 319.675781 87.363281 321.363281 C 85.675781 323.050781 83.386719 324 81 324 L 9 324 C 6.613281 324 4.324219 323.050781 2.636719 321.363281 C 0.949219 319.675781 0 317.386719 0 315 L 0 9 C 0 6.613281 0.949219 4.324219 2.636719 2.636719 C 4.324219 0.949219 6.613281 0 9 0 Z M 9 0 " clip-rule="nonzero"/></clipPath><clipPath id="4cc7ecd3e3"><rect x="0" width="90" y="0" height="324"/></clipPath><clipPath id="9ec2bd7b96"><path d="M 132 30 L 354 30 L 354 102 L 132 102 Z M 132 30 " clip-rule="nonzero"/></clipPath><clipPath id="87bdf201a4"><path d="M 141 30 L 345 30 C 347.386719 30 349.675781 30.949219 351.363281 32.636719 C 353.050781 34.324219 354 36.613281 354 39 L 354 93 C 354 95.386719 353.050781 97.675781 351.363281 99.363281 C 349.675781 101.050781 347.386719 102 345 102 L 141 102 C 138.613281 102 136.324219 101.050781 134.636719 99.363281 C 132.949219 97.675781 132 95.386719 132 93 L 132 39 C 132 36.613281 132.949219 34.324219 134.636719 32.636719 C 136.324219 30.949219 138.613281 30 141 30 Z M 141 30 " clip-rule="nonzero"/></clipPath><clipPath id="b1a40f1979"><path d="M 0 0 L 222 0 L 222 72 L 0 72 Z M 0 0 " clip-rule="nonzero"/></clipPath><clipPath id="0d0512bd6c"><path d="M 9 0 L 213 0 C 215.386719 0 217.675781 0.949219 219.363281 2.636719 C 221.050781 4.324219 222 6.613281 222 9 L 222 63 C 222 65.386719 221.050781 67.675781 219.363281 69.363281 C 217.675781 71.050781 215.386719 72 213 72 L 9 72 C 6.613281 72 4.324219 71.050781 2.636719 69.363281 C 0.949219 67.675781 0 65.386719 0 63 L 0 9 C 0 6.613281 0.949219 4.324219 2.636719 2.636719 C 4.324219 0.949219 6.613281 0 9 0 Z M 9 0 " clip-rule="nonzero"/></clipPath><clipPath id="235463fddf"><rect x="0" width="222" y="0" height="72"/></clipPath><clipPath id="ea4f9d44f4"><path d="M 215.25 282 L 354 282 L 354 354 L 215.25 354 Z M 215.25 282 " clip-rule="nonzero"/></clipPath><clipPath id="223cb5b629"><path d="M 224.25 282 L 345 282 C 347.386719 282 349.675781 282.949219 351.363281 284.636719 C 353.050781 286.324219 354 288.613281 354 291 L 354 345 C 354 347.386719 353.050781 349.675781 351.363281 351.363281 C 349.675781 353.050781 347.386719 354 345 354 L 224.25 354 C 221.863281 354 219.574219 353.050781 217.886719 351.363281 C 216.199219 349.675781 215.25 347.386719 215.25 345 L 215.25 291 C 215.25 288.613281 216.199219 286.324219 217.886719 284.636719 C 219.574219 282.949219 221.863281 282 224.25 282 Z M 224.25 282 " clip-rule="nonzero"/></clipPath><clipPath id="b46ef03eba"><path d="M 0.25 0 L 139 0 L 139 72 L 0.25 72 Z M 0.25 0 " clip-rule="nonzero"/></clipPath><clipPath id="375e647397"><path d="M 9.25 0 L 130 0 C 132.386719 0 134.675781 0.949219 136.363281 2.636719 C 138.050781 4.324219 139 6.613281 139 9 L 139 63 C 139 65.386719 138.050781 67.675781 136.363281 69.363281 C 134.675781 71.050781 132.386719 72 130 72 L 9.25 72 C 6.863281 72 4.574219 71.050781 2.886719 69.363281 C 1.199219 67.675781 0.25 65.386719 0.25 63 L 0.25 9 C 0.25 6.613281 1.199219 4.324219 2.886719 2.636719 C 4.574219 0.949219 6.863281 0 9.25 0 Z M 9.25 0 " clip-rule="nonzero"/></clipPath><clipPath id="30f44a46bf"><rect x="0" width="139" y="0" height="72"/></clipPath><clipPath id="9e5f74dbb5"><path d="M 132 198 L 354 198 L 354 270 L 132 270 Z M 132 198 " clip-rule="nonzero"/></clipPath><clipPath id="4a1b5f6597"><path d="M 141 198 L 345 198 C 347.386719 198 349.675781 198.949219 351.363281 200.636719 C 353.050781 202.324219 354 204.613281 354 207 L 354 261 C 354 263.386719 353.050781 265.675781 351.363281 267.363281 C 349.675781 269.050781 347.386719 270 345 270 L 141 270 C 138.613281 270 136.324219 269.050781 134.636719 267.363281 C 132.949219 265.675781 132 263.386719 132 261 L 132 207 C 132 204.613281 132.949219 202.324219 134.636719 200.636719 C 136.324219 198.949219 138.613281 198 141 198 Z M 141 198 " clip-rule="nonzero"/></clipPath><clipPath id="c574e9cc68"><path d="M 0 0 L 222 0 L 222 72 L 0 72 Z M 0 0 " clip-rule="nonzero"/></clipPath><clipPath id="87c44a7dad"><path d="M 9 0 L 213 0 C 215.386719 0 217.675781 0.949219 219.363281 2.636719 C 221.050781 4.324219 222 6.613281 222 9 L 222 63 C 222 65.386719 221.050781 67.675781 219.363281 69.363281 C 217.675781 71.050781 215.386719 72 213 72 L 9 72 C 6.613281 72 4.324219 71.050781 2.636719 69.363281 C 0.949219 67.675781 0 65.386719 0 63 L 0 9 C 0 6.613281 0.949219 4.324219 2.636719 2.636719 C 4.324219 0.949219 6.613281 0 9 0 Z M 9 0 " clip-rule="nonzero"/></clipPath><clipPath id="0abae91cc0"><rect x="0" width="222" y="0" height="72"/></clipPath><clipPath id="d8310583ec"><path d="M 132 114 L 243 114 L 243 186 L 132 186 Z M 132 114 " clip-rule="nonzero"/></clipPath><clipPath id="79ab5c4ea1"><path d="M 141 114 L 234 114 C 236.386719 114 238.675781 114.949219 240.363281 116.636719 C 242.050781 118.324219 243 120.613281 243 123 L 243 177 C 243 179.386719 242.050781 181.675781 240.363281 183.363281 C 238.675781 185.050781 236.386719 186 234 186 L 141 186 C 138.613281 186 136.324219 185.050781 134.636719 183.363281 C 132.949219 181.675781 132 179.386719 132 177 L 132 123 C 132 120.613281 132.949219 118.324219 134.636719 116.636719 C 136.324219 114.949219 138.613281 114 141 114 Z M 141 114 " clip-rule="nonzero"/></clipPath><clipPath id="5eb8ce3c26"><path d="M 0 0 L 111 0 L 111 72 L 0 72 Z M 0 0 " clip-rule="nonzero"/></clipPath><clipPath id="19eccf56d1"><path d="M 9 0 L 102 0 C 104.386719 0 106.675781 0.949219 108.363281 2.636719 C 110.050781 4.324219 111 6.613281 111 9 L 111 63 C 111 65.386719 110.050781 67.675781 108.363281 69.363281 C 106.675781 71.050781 104.386719 72 102 72 L 9 72 C 6.613281 72 4.324219 71.050781 2.636719 69.363281 C 0.949219 67.675781 0 65.386719 0 63 L 0 9 C 0 6.613281 0.949219 4.324219 2.636719 2.636719 C 4.324219 0.949219 6.613281 0 9 0 Z M 9 0 " clip-rule="nonzero"/></clipPath><clipPath id="92c6c8bf0c"><rect x="0" width="111" y="0" height="72"/></clipPath></defs><g clip-path="url(#e7fe997b37)"><g clip-path="url(#046fa6e0d6)"><g transform="matrix(1, 0, 0, 1, 30, 30)"><g clip-path="url(#4cc7ecd3e3)"><g clip-path="url(#aeabacfb23)"><g clip-path="url(#6d409f7019)"><rect x="-114.48" width="552.96" fill="#5170ff" height="552.959979" y="-114.479997" fill-opacity="1"/></g></g></g></g></g></g><g clip-path="url(#9ec2bd7b96)"><g clip-path="url(#87bdf201a4)"><g transform="matrix(1, 0, 0, 1, 132, 30)"><g clip-path="url(#235463fddf)"><g clip-path="url(#b1a40f1979)"><g clip-path="url(#0d0512bd6c)"><path fill="#cb6ce6" d="M 0 0 L 221.90625 0 L 221.90625 72 L 0 72 Z M 0 0 " fill-opacity="1" fill-rule="nonzero"/></g></g></g></g></g></g><g clip-path="url(#ea4f9d44f4)"><g clip-path="url(#223cb5b629)"><g transform="matrix(1, 0, 0, 1, 215, 282)"><g clip-path="url(#30f44a46bf)"><g clip-path="url(#b46ef03eba)"><g clip-path="url(#375e647397)"><path fill="#00bf63" d="M 0.25 0 L 138.90625 0 L 138.90625 72 L 0.25 72 Z M 0.25 0 " fill-opacity="1" fill-rule="nonzero"/></g></g></g></g></g></g><g clip-path="url(#9e5f74dbb5)"><g clip-path="url(#4a1b5f6597)"><g transform="matrix(1, 0, 0, 1, 132, 198)"><g clip-path="url(#0abae91cc0)"><g clip-path="url(#c574e9cc68)"><g clip-path="url(#87c44a7dad)"><path fill="#ffde59" d="M 0 0 L 221.90625 0 L 221.90625 72 L 0 72 Z M 0 0 " fill-opacity="1" fill-rule="nonzero"/></g></g></g></g></g></g><g clip-path="url(#d8310583ec)"><g clip-path="url(#79ab5c4ea1)"><g transform="matrix(1, 0, 0, 1, 132, 114)"><g clip-path="url(#92c6c8bf0c)"><g clip-path="url(#5eb8ce3c26)"><g clip-path="url(#19eccf56d1)"><rect x="-216.48" width="552.96" fill="#ff914d" height="552.959979" y="-198.479997" fill-opacity="1"/></g></g></g></g></g></g></svg>
